<?xml version="1.0" standalone="no"?><!DOCTYPE svg PUBLIC "-//W3C//DTD SVG 1.1//EN" "http://www.w3.org/Graphics/SVG/1.1/DTD/svg11.dtd"><svg t="1720003462702" class="icon" viewBox="0 0 1085 1024" version="1.1" xmlns="http://www.w3.org/2000/svg" p-id="4506" width="211.9140625" height="200" xmlns:xlink="http://www.w3.org/1999/xlink"><path d="M853.012078 1015.466667C909.653333 1015.466667 955.713255 969.406745 955.713255 912.76549L955.713255 630.322196C955.713255 616.126745 944.228392 604.641882 930.032941 604.641882 915.83749 604.641882 904.352627 616.126745 904.352627 630.322196L904.352627 912.76549C904.352627 941.076078 881.302588 964.106039 852.992 964.106039L673.249882 964.106039C659.054431 964.106039 647.569569 975.590902 647.569569 989.786353 647.569569 1003.981804 659.054431 1015.466667 673.249882 1015.466667L853.012078 1015.466667 853.012078 1015.466667ZM563.059451 21.584314C553.020235 11.545098 536.776784 11.545098 526.757647 21.584314L141.633255 406.708706C141.613176 406.728784 141.593098 406.748863 141.57302 406.768941L13.211608 535.130353C3.172392 545.169569 3.172392 561.41302 13.211608 571.432157 23.250824 581.471373 39.494275 581.471373 49.513412 571.432157L134.063686 486.881882 134.063686 912.76549C134.063686 969.406745 180.123608 1015.466667 236.764863 1015.466667L416.50698 1015.466667C430.702431 1015.466667 442.187294 1003.981804 442.187294 989.786353L442.187294 758.703686 673.269961 758.703686C687.465412 758.703686 698.950275 747.218824 698.950275 733.023373 698.950275 718.827922 687.465412 707.343059 673.269961 707.343059L416.50698 707.343059C402.311529 707.343059 390.826667 718.827922 390.826667 733.023373L390.826667 964.106039 236.764863 964.106039C208.454275 964.106039 185.424314 941.056 185.424314 912.76549L185.424314 435.541333 544.888471 76.077176 1040.263529 571.452235C1045.283137 576.471843 1051.848784 578.981647 1058.414431 578.981647 1064.980078 578.981647 1071.545725 576.471843 1076.565333 571.452235 1086.604549 561.41302 1086.604549 545.169569 1076.565333 535.150431L563.059451 21.584314 563.059451 21.584314Z" fill="#272636" p-id="4507"></path></svg>